<?xml version="1.0" encoding="UTF-8" standalone="no"?>
<!-- Created with Inkscape (http://www.inkscape.org/) -->

<svg
   version="1.1"
   id="svg9"
   xml:space="preserve"
   width="338.57199"
   height="66.351997"
   viewBox="0 0 338.57198 66.351998"
   sodipodi:docname="bosnalijek.svg"
   inkscape:version="1.1.1 (c3084ef, 2021-09-22)"
   xmlns:inkscape="http://www.inkscape.org/namespaces/inkscape"
   xmlns:sodipodi="http://sodipodi.sourceforge.net/DTD/sodipodi-0.dtd"
   xmlns="http://www.w3.org/2000/svg"
   xmlns:svg="http://www.w3.org/2000/svg"><defs
     id="defs13"><clipPath
       clipPathUnits="userSpaceOnUse"
       id="clipPath23"><path
         d="M 0,0 H 842 V 596 H 0 Z"
         clip-rule="evenodd"
         id="path21" /></clipPath></defs><sodipodi:namedview
     id="namedview11"
     pagecolor="#ffffff"
     bordercolor="#666666"
     borderopacity="1.0"
     inkscape:pageshadow="2"
     inkscape:pageopacity="0.0"
     inkscape:pagecheckerboard="0"
     showgrid="false"
     fit-margin-top="0"
     fit-margin-left="0"
     fit-margin-right="0"
     fit-margin-bottom="0"
     inkscape:zoom="0.95041561"
     inkscape:cx="187.81257"
     inkscape:cy="29.460796"
     inkscape:window-width="1280"
     inkscape:window-height="966"
     inkscape:window-x="1653"
     inkscape:window-y="25"
     inkscape:window-maximized="0"
     inkscape:current-layer="g19" /><g
     id="g15"
     inkscape:groupmode="layer"
     inkscape:label="Logo"
     transform="matrix(1.3333333,0,0,-1.3333333,-648.50747,594.48747)"><g
       id="g17"
       transform="translate(-2.3673854,-2.3673854)"><g
         id="g19"
         clip-path="url(#clipPath23)"><path
           d="m 548.797,410.212 v 26.158 h 12.494 c 2.046,0 3.529,-0.263 4.458,-0.788 1.064,-0.612 1.884,-1.632 2.453,-3.048 0.39,-0.969 0.588,-1.975 0.588,-3.029 0,-1.345 -0.313,-2.597 -0.938,-3.774 -0.626,-1.165 -1.423,-1.985 -2.413,-2.447 2.241,-1.146 3.351,-3.203 3.351,-6.154 0,-1.685 -0.363,-3.115 -1.063,-4.294 -0.612,-0.992 -1.413,-1.681 -2.388,-2.062 -0.987,-0.373 -2.434,-0.562 -4.331,-0.562 z m 4.914,15.407 h 6.127 c 0.689,0 1.193,0.038 1.513,0.118 0.327,0.074 0.639,0.249 0.943,0.522 0.726,0.622 1.083,1.483 1.083,2.573 0,1.037 -0.344,1.818 -1.023,2.343 -0.488,0.36 -1.299,0.531 -2.419,0.531 h -6.224 z m 0,-10.753 h 6.127 c 0.689,0 1.193,0.043 1.537,0.118 0.329,0.073 0.637,0.251 0.919,0.521 0.726,0.623 1.083,1.477 1.083,2.58 0,1.037 -0.344,1.818 -1.023,2.346 -0.488,0.354 -1.299,0.535 -2.419,0.535 h -6.224 z m 68.036,14.526 v -19.18 h -4.69 v 26.158 h 6.295 l 9.176,-19.485 v 19.485 h 4.7 v -26.158 h -6.056 z m 41.698,6.978 h 4.913 v -14.684 c 0,-0.834 0.046,-1.672 0.046,-2.14 0,-0.458 0.085,-1.016 0.166,-1.568 0.141,-1.177 0.659,-1.989 1.517,-2.437 0.861,-0.446 2.353,-0.675 4.493,-0.675 h 2.365 v -4.654 h -2.88 c -2.41,0 -4.284,0.159 -5.377,0.474 -2.544,0.853 -4.155,2.676 -4.841,5.502 -0.136,0.572 -0.24,1.306 -0.3,2.18 -0.075,0.872 -0.102,1.975 -0.102,3.318 z m 16.245,0 h 4.906 v -26.158 h -4.906 z m 7.854,-26.158 v 4.654 h 1.893 c 1.511,0 2.611,0.06 3.295,0.185 0.687,0.114 1.228,0.36 1.609,0.72 0.504,0.427 0.857,1.077 1.041,1.938 0.186,0.844 0.284,2.18 0.284,3.977 v 14.684 h 4.909 v -14.684 c 0,-1.777 -0.064,-3.304 -0.175,-4.216 -0.108,-0.922 -0.343,-1.787 -0.687,-2.621 -0.88,-2.207 -2.486,-3.644 -4.807,-4.286 -1.104,-0.236 -2.887,-0.351 -4.957,-0.351 z m 33.509,26.158 v -4.664 h -5.471 c -1.548,0 -2.957,-0.198 -3.658,-0.384 -0.7,-0.181 -1.4,-0.763 -1.914,-1.53 -0.323,-0.465 -0.542,-0.969 -0.67,-1.491 -0.132,-0.521 -0.245,-1.44 -0.353,-2.742 h 12.066 v -4.654 h -12.066 c 0.175,-2.267 0.753,-3.835 1.733,-4.717 0.993,-0.885 2.688,-1.322 5.074,-1.322 h 5.259 v -4.654 h -5.471 c -1.646,0 -3.295,0.121 -4.593,0.364 -2.069,0.383 -3.714,1.413 -4.963,3.082 -1.746,2.403 -2.621,5.669 -2.621,9.771 0,4.566 1.244,8.106 3.711,10.632 0.841,0.849 1.8,1.508 2.695,1.791 0.892,0.275 2.237,0.518 3.866,0.518 z m 8.128,-26.158 h -4.67 v 26.158 h 4.67 z m 0.162,13.237 7.164,12.921 h 6.164 l -7.928,-12.921 7.934,-13.237 h -6.17 z m -90.298,-13.237 9.041,26.158 h 5.576 l 9.026,-26.158 h -5.676 l -2.186,6.057 h -7.901 l -2.201,-6.057 z m 11.83,19.869 -2.874,-9.159 h 5.737 z m -69.568,6.5 c 2.167,0 4.062,-0.447 5.697,-1.342 1.928,-1.043 3.28,-2.833 4.058,-5.336 0.615,-1.999 0.921,-4.307 0.921,-6.946 0,-2.664 -0.373,-4.969 -1.127,-6.907 -0.922,-2.345 -2.345,-3.973 -4.256,-4.905 -1.437,-0.69 -3.082,-1.033 -4.97,-1.033 -2.423,0 -4.549,0.548 -6.356,1.645 -1.497,0.918 -2.647,2.355 -3.449,4.304 -0.807,1.957 -1.204,4.347 -1.204,7.156 0,4.98 1.02,8.526 3.072,10.646 0.878,0.898 1.948,1.568 3.2,2.036 1.265,0.457 2.722,0.682 4.414,0.682 m 0.028,-4.407 c -2.134,0 -3.655,-0.838 -4.567,-2.513 -0.723,-1.32 -1.074,-3.402 -1.074,-6.272 0,-3.069 0.452,-5.316 1.346,-6.75 0.896,-1.427 2.333,-2.14 4.307,-2.14 1.905,0 3.308,0.716 4.21,2.153 0.908,1.433 1.348,3.658 1.348,6.676 0,2.722 -0.356,4.805 -1.096,6.268 -0.854,1.717 -2.351,2.578 -4.474,2.578 m 13.521,-21.962 v 4.654 h 9.752 c 1.544,0 2.587,0.191 3.128,0.579 0.748,0.531 1.131,1.359 1.131,2.473 0,1.247 -0.441,2.177 -1.319,2.776 -0.508,0.34 -1.305,0.5 -2.392,0.5 h -3.96 c -2.402,0 -4.139,0.536 -5.225,1.602 -0.661,0.677 -1.179,1.518 -1.563,2.554 -0.376,1.029 -0.575,2.133 -0.575,3.301 0,1.823 0.446,3.503 1.324,5.03 0.824,1.447 2.2,2.298 4.114,2.564 0.622,0.081 1.578,0.125 2.847,0.125 h 10.589 v -4.664 h -9.56 c -1.413,0 -2.362,-0.074 -2.843,-0.225 -0.962,-0.294 -1.443,-1.188 -1.443,-2.658 0,-1.252 0.4,-2.1 1.208,-2.534 0.259,-0.142 0.612,-0.252 1.06,-0.326 0.447,-0.071 0.989,-0.118 1.628,-0.118 h 3.421 c 0.872,0 1.633,-0.041 2.288,-0.132 0.657,-0.087 1.209,-0.224 1.647,-0.417 1.5,-0.622 2.537,-1.712 3.112,-3.293 0.464,-1.279 0.686,-2.632 0.686,-4.062 0,-1.558 -0.299,-2.984 -0.888,-4.283 -0.825,-1.757 -2.087,-2.82 -3.772,-3.196 -0.891,-0.165 -2.11,-0.25 -3.664,-0.25 z"
           style="fill:#0066b3;fill-opacity:1;fill-rule:nonzero;stroke:none"
           id="path219" /><path
           d="m 513.637,448.233 c -13.745,0 -24.889,-11.143 -24.889,-24.885 0,-13.745 11.144,-24.879 24.889,-24.879 13.738,0 24.878,11.134 24.878,24.879 0,13.742 -11.14,24.885 -24.878,24.885 m 2.513,-5.13 c 8.997,-1.141 16.117,-8.267 17.241,-17.265 H 516.15 Z m 0,-39.505 v 17.26 h 17.241 c -1.124,-8.997 -8.244,-16.123 -17.241,-17.26"
           style="fill:#0066b3;fill-opacity:1;fill-rule:nonzero;stroke:none"
           id="path221" /></g></g></g></svg>
