<svg height="113.78057" viewBox="0 0 449.99999 113.78057" width="450" xmlns="http://www.w3.org/2000/svg"><path d="m219.12165 49.48813c-5.30983 0-9.63505 4.75894-9.63505 10.01017 0 5.26296 4.32522 9.96326 9.63505 9.96326 5.30986 0 9.62337-4.7003 9.62337-9.96326 0-5.25123-4.31351-10.01017-9.62337-10.01017m0 25.61149c-9.08415 0-15.42548-6.59921-15.42548-15.60132v-24.7089h5.94281v14.41742c2.19192-3.17652 6.83362-4.92302 10.39695-4.92302 8.33401 0 14.49949 6.81019 14.49949 15.2145 0 8.42777-6.91566 15.60132-15.41377 15.60132"/><path d="m394.44014 74.11502.012-17.12513c0-4.71203 3.11788-6.59918 7.7948-6.59918v-6.18895c-8.00581 0-14.34711 3.96186-14.34711 12.07312v17.84014zm0 0"/><path d="m132.73422 34.81283h12.38963c5.01679 0 11.89731.60951 16.43353 6.62265 2.9421 3.5985 4.16114 8.04095 4.16114 12.9757 0 11.2878-6.02484 19.73898-20.10238 19.73898h-12.88192zm7.22044 32.9843h6.0483c8.79111 0 12.50685-5.72009 12.50685-13.24531 0-3.39923-.87912-6.81019-2.8835-9.35373-1.81684-2.22709-4.6769-4.0322-9.58818-4.0322h-6.08347zm0 0"/><path d="m175.48254 61.71366c.29287 5.15746 4.85267 7.91201 9.00211 7.90031 3.6102 0 6.13031-1.71136 7.58379-4.33698h6.56405c-1.38315 3.19998-3.4344 5.63805-5.90764 7.26735-2.41464 1.64099-5.2864 2.47324-8.26367 2.47324-9.17792 0-15.36687-7.37282-15.36687-15.32 0-8.31054 6.4937-15.49582 15.2731-15.49582 4.26664 0 8.06439 1.60583 10.80724 4.37212 3.50471 3.57504 4.86442 8.14643 4.31352 13.13978zm17.7346-4.92302c-.23435-3.18824-3.5516-7.26734-8.80283-7.18527-5.38017 0-8.55669 3.89152-8.8263 7.18527zm0 0"/><path d="m238.91927 45.10432h6.65781v29.04584h-6.65781zm0-10.27975h6.65781v6.07171h-6.65781zm0 0"/><path d="m320.50089 34.82457h6.37649v13.97202c1.67616-3.22341 5.36847-4.62999 8.94351-4.59483 4.52449 0 7.36108 1.51206 9.13105 4.06734 1.76993 2.52014 2.36773 6.01314 2.36773 9.95156v15.9295h-6.36476v-15.65992c0-2.356-.41026-4.43072-1.48865-5.90763-1.11353-1.47689-2.83659-2.4029-5.48561-2.4029-2.78976.012-4.60656 1.11356-5.64979 2.59044-1.07839 1.50035-1.45348 3.37579-1.45348 5.06369v16.31632h-6.37649zm0 0"/><path d="m405.71618 45.10432h5.97797v3.84465c.90255-1.81684 3.93842-4.74721 8.65046-4.74721 2.47324 0 5.16919.73845 7.26731 3.02414.67987.70328 1.44178 2.05125 1.80513 2.73109.4923-.86738 1.12527-1.87544 2.08642-2.80142 1.82857-1.7934 4.43072-2.95381 7.54863-2.95381 2.52014 0 5.55601.66811 7.7362 2.91864 2.62565 2.70768 3.21169 5.23953 3.21169 11.02992v15.99984h-6.37647v-15.70679c0-2.12159-.24606-4.27834-1.34797-5.87246-.84395-1.43002-2.3209-2.3912-4.81757-2.3912-2.46151 0-4.29005 1.05495-5.26291 2.70768-1.03152 1.66443-1.16046 3.22342-1.16046 5.26293v15.99984h-6.36476v-15.95294c.0351-2.01611-.19925-3.71571-1.03152-5.22779-.93769-1.641-2.47318-2.75456-5.06369-2.78972-2.59045-.0468-4.31348 1.20733-5.1926 2.76628-.93769 1.53552-1.3011 3.4344-1.3011 5.40361v15.80056h-6.36476zm0 0"/><path d="m265.23403 69.5319c-5.27467 0-9.56475-4.67687-9.56475-9.90466 0-5.21606 4.29008-9.95156 9.56475-9.95156 5.28639 0 9.58817 4.7355 9.58817 9.95156 0 5.22779-4.30178 9.90466-9.58817 9.90466m0-25.295c-9.975 0-15.53098 7.75964-15.53098 15.32v.0585c0 7.63069 5.55598 15.3669 15.53098 15.3669 9.98673 0 15.54271-7.73621 15.54271-15.3669 0-7.61897-5.55598-15.37861-15.54271-15.37861"/><path d="m366.98835 69.88355c5.2981 0 9.63508-4.75893 9.63508-10.02187 0-5.26296-4.33698-9.96329-9.63508-9.96329-5.32157 0-9.63508 4.70033-9.63508 9.96329 0 5.26294 4.31351 10.02187 9.63508 10.02187m0-25.62318c9.08415 0 15.4138 6.61091 15.4138 15.60131v14.22988h-5.93113v-3.92669c-2.18019 3.17651-6.84535 4.92301-10.40868 4.92301-8.33398 0-14.49949-6.81018-14.49949-15.2262 0-8.42777 6.91569-15.60131 15.4255-15.60131"/><path d="m310.50245 59.83822c0-5.25123-4.31348-9.96327-9.63507-9.96327-5.29811 0-9.61162 4.71204-9.61162 9.96327 0 5.26296 4.31351 9.99843 9.61162 9.99843 5.32159 0 9.63507-4.73547 9.63507-9.99843m5.7787 0c0 8.41604-6.15375 15.20279-14.47602 15.20279-3.56337 0-8.2168-1.7465-10.39699-4.92304v14.41745h-5.9428v-24.6972c0-8.97865 6.34132-15.58958 15.40204-15.58958 8.49808 0 15.41377 7.17357 15.41377 15.58958"/><path d="m0 56.88442c0-31.42535 25.459076-56.88442 56.896124-56.88442 31.39018 0 56.884446 25.45907 56.884446 56.88442 0 31.42531-25.494266 56.89615-56.884446 56.89615-31.437048 0-56.896124-25.47084-56.896124-56.89615" fill="#e3000f"/><path d="m107.45095 56.88442c0-6.98603-5.66149-12.64752-12.635776-12.64752-6.986 0-12.64748 5.66149-12.64748 12.64752 0 6.98599 5.66148 12.63578 12.64748 12.63578 6.974286 0 12.635776-5.64979 12.635776-12.63578" fill="#fff"/></svg>